<svg xmlns="http://www.w3.org/2000/svg" width="512" height="599" viewBox="0 0 512 599" style="
    width: 200px;
    height: 110px;
"><path d="M 13 210.755 L 13 413 38.765 413 L 64.530 413 76.765 400.736 L 89 388.471 89 236.481 L 89 84.490 51 46.500 L 13 8.510 13 210.755 M 220.838 43.747 C 239.902 62.582, 255.809 77.882, 256.187 77.747 C 256.565 77.611, 272.320 62.200, 291.197 43.500 L 325.520 9.500 255.848 9.500 L 186.176 9.500 220.838 43.747 M 115 230 C 115 294.350, 115.312 347, 115.694 347 C 116.075 347, 133.175 330.251, 153.694 309.780 L 191 272.561 191 230.025 L 191 187.490 153.745 150.245 C 133.255 129.760, 116.155 113, 115.745 113 C 115.335 113, 115 165.650, 115 230 M 396.487 270.500 C 396.486 349.150, 396.605 381.473, 396.750 342.328 C 396.895 303.184, 396.895 238.834, 396.750 199.328 C 396.605 159.823, 396.487 191.850, 396.487 270.500 M 217 224.500 C 217 237.425, 217.331 248, 217.735 248 C 218.139 248, 223.764 242.719, 230.235 236.265 L 242.001 224.531 230.266 212.765 C 223.812 206.294, 218.187 201, 217.766 201 C 217.345 201, 217 211.575, 217 224.500 M 278.433 228.304 L 263.500 243.500 278.628 228.634 C 288.560 218.875, 293.943 214.238, 294.299 215.134 C 294.641 215.994, 294.871 216.059, 294.921 215.309 C 295.141 211.992, 292.136 214.361, 278.433 228.304 M 141.865 363.906 L 92.500 412.914 142.143 412.957 C 180.987 412.991, 191.882 412.728, 192.228 411.750 C 192.837 410.026, 192.352 316.019, 191.731 315.398 C 191.456 315.123, 169.017 336.951, 141.865 363.906 M 244 533.500 L 244 570 249.500 570 L 255 570 255 533.500 L 255 497 249.500 497 L 244 497 244 533.500 M 69 499.123 C 64.875 499.598, 60.938 500.201, 60.250 500.462 C 59.283 500.830, 59 508.764, 59 535.469 L 59 570 64.500 570 L 70 570 70 539.107 C 70 504.348, 69.329 507, 78.122 507 C 87.620 507, 94 512.452, 94 520.568 C 94 525.615, 88.259 531.412, 82.341 532.341 C 79.350 532.811, 77.411 533.908, 75.436 536.247 C 72.691 539.500, 72.691 539.500, 78.095 540.318 C 81.068 540.768, 84.152 541.478, 84.950 541.895 C 87.984 543.484, 90.325 548.134, 93.380 558.636 C 96.540 569.500, 96.540 569.500, 102.562 569.792 L 108.584 570.085 104.292 556.811 C 101.117 546.993, 99.237 542.776, 97.071 540.609 C 94.142 537.680, 94.142 537.680, 98.158 534.771 C 109.250 526.736, 107.991 509.756, 95.772 502.613 C 92.159 500.500, 80.843 497.729, 77.500 498.137 C 76.950 498.204, 73.125 498.648, 69 499.123 M 407.667 504.830 C 409.225 507.486, 418.600 523.236, 428.500 539.828 C 446.500 569.996, 446.500 569.996, 452.809 569.998 C 456.279 569.999, 458.914 569.663, 458.665 569.250 C 444.455 545.723, 438 534.697, 438 533.953 C 438 533.439, 441.650 527.052, 446.110 519.759 C 450.571 512.467, 455.108 505.038, 456.192 503.250 C 458.163 500, 458.163 500, 451.832 500.002 C 445.500 500.005, 445.500 500.005, 438.519 512.883 L 431.538 525.761 424.559 512.880 C 417.580 500, 417.580 500, 411.208 500 C 404.835 500, 404.835 500, 407.667 504.830 M 199 506.410 C 195.584 507.638, 195.488 507.822, 195 514.051 C 194.500 520.435, 194.500 520.435, 190.750 521.317 C 187.481 522.085, 187 522.571, 187 525.099 C 187 527.802, 187.265 528, 190.878 528 C 194.757 528, 194.757 528, 195.195 543.250 C 195.575 556.476, 195.924 559.062, 197.829 562.735 C 201.535 569.881, 207.737 572.365, 217.750 570.713 C 223.291 569.799, 223.757 569.121, 222.007 564.518 C 221.119 562.183, 220.644 561.976, 217.514 562.563 C 212.452 563.513, 209.249 562.383, 207.518 559.035 C 206.277 556.635, 206 551.441, 206 530.550 C 206 502.053, 206.484 503.720, 199 506.410 M 264.605 520.514 C 262.463 521.329, 260.054 522.540, 259.252 523.205 C 256.709 525.316, 261.276 528, 267.411 528 C 270.265 528, 273.140 528.540, 273.800 529.200 C 274.653 530.053, 275 536.133, 275 550.200 L 275 570 280.750 570 L 286.500 570 286.356 550.975 C 286.186 528.320, 285.862 526.200, 282.010 522.509 C 278.408 519.059, 270.742 518.180, 264.605 520.514 M 334 519.593 C 328.694 521.513, 325 523.441, 325 524.292 C 325 526.414, 328.750 527.938, 334.050 527.968 C 337.102 527.986, 340.140 528.540, 340.800 529.200 C 341.653 530.053, 342 536.133, 342 550.200 L 342 570 348 570 L 354 570 354 553.136 C 354 532.610, 353.020 526.562, 349.048 522.588 C 346.692 520.231, 345.124 519.616, 340.819 519.363 C 337.893 519.191, 334.825 519.295, 334 519.593 M 364 519.696 C 363.175 519.992, 360.475 521.112, 358 522.186 C 353.500 524.137, 353.500 524.137, 355.861 526.069 C 357.643 527.527, 359.778 528, 364.576 528 C 369.834 528, 371.108 528.333, 371.965 529.934 C 372.575 531.074, 373 539.704, 373 550.934 C 373 570, 373 570, 378.500 570 C 384 570, 384 570, 383.998 549.750 C 383.997 526.788, 383.299 523.898, 377 520.752 C 373.653 519.079, 367.183 518.554, 364 519.696 M 124.468 521.750 C 124.844 522.712, 128.785 533.400, 133.228 545.500 C 137.670 557.600, 141.676 567.917, 142.130 568.427 C 143.435 569.895, 146 562.563, 146 557.361 C 146 554.467, 144.010 546.377, 140.826 536.329 C 135.652 520, 135.652 520, 129.719 520 C 124.475 520, 123.865 520.203, 124.468 521.750 M 155.103 543.250 C 146.158 571.597, 142.562 581.181, 140.006 583.494 C 138.647 584.724, 136.554 585.229, 133.130 585.152 C 128.731 585.052, 128.143 585.295, 127.608 587.427 C 127.278 588.740, 126.746 590.498, 126.425 591.334 C 125.975 592.506, 126.887 593.011, 130.414 593.539 C 140.430 595.041, 146.125 591.742, 150.897 581.673 C 152.506 578.278, 156.841 567.175, 160.532 557 C 164.222 546.825, 168.754 534.337, 170.603 529.250 L 173.964 520 168.202 520 C 162.441 520, 162.441 520, 155.103 543.250 M 209 521.545 C 209 522.395, 210.105 524.195, 211.455 525.545 C 213.341 527.432, 214.962 528, 218.455 528 C 223 528, 223 528, 223 524 C 223 520, 223 520, 216 520 C 210.353 520, 209 520.299, 209 521.545 M 310.746 523.750 C 311.086 525.813, 311.396 537.062, 311.433 548.750 L 311.500 570 317.319 570 L 323.137 570 322.819 547.703 C 322.442 521.351, 322.038 520, 314.540 520 C 310.126 520, 310.126 520, 310.746 523.750 M 414.771 551.683 C 402.218 572.216, 402.755 570.153, 410.049 569.799 C 416.222 569.500, 416.222 569.500, 421.652 559.500 C 427.438 548.844, 428.073 544.798, 424.714 540.001 C 423.277 537.951, 422.886 538.410, 414.771 551.683" stroke="none" fill="#413570" fill-rule="evenodd"></path><path d="M 188.250 9.689 C 189.213 9.941, 190.787 9.941, 191.750 9.689 C 192.713 9.438, 191.925 9.232, 190 9.232 C 188.075 9.232, 187.287 9.438, 188.250 9.689 M 460.245 47.255 L 423 84.510 423 248.767 L 423 413.024 460.750 412.762 L 498.500 412.500 498.752 211.250 C 498.891 100.563, 498.664 10, 498.247 10 C 497.831 10, 480.730 26.765, 460.245 47.255 M 306.946 27.750 C 303.500 31.500, 303.500 31.500, 307.250 28.054 C 310.740 24.846, 311.460 24, 310.696 24 C 310.529 24, 308.842 25.688, 306.946 27.750 M 274.261 60.233 L 256.028 78.465 249.764 72.493 L 243.500 66.522 249.753 73.004 L 256.007 79.487 274.750 60.743 C 285.059 50.434, 293.268 42, 292.993 42 C 292.718 42, 284.288 50.205, 274.261 60.233 M 358.245 165.255 L 321 202.510 321 307.755 L 321 413 358.500 413 L 396 413 396 270.500 C 396 192.125, 395.885 128, 395.745 128 C 395.605 128, 378.730 144.765, 358.245 165.255 M 256.213 250.780 L 218.926 287.500 218.963 350.250 L 219 413 256.500 413 L 294 413 294 313.500 C 294 258.775, 293.887 214.014, 293.750 214.030 C 293.613 214.047, 276.721 230.584, 256.213 250.780" stroke="none" fill="#645ccc" fill-rule="evenodd"></path></svg>