<svg class="svg-icon" style="width: 18px; height: 18px;vertical-align: middle;fill: currentColor;overflow: hidden;" viewBox="0 0 1024 1024" version="1.1" xmlns="http://www.w3.org/2000/svg"><path d="M631.466667 160.426667c-47.786667-34.133333-51.2-75.093333-51.2-78.506667 0-20.48-17.066667-34.133333-37.546667-30.72-20.48 0-34.133333 17.066667-30.72 37.546667V716.8c-20.48-10.24-47.786667-17.066667-75.093333-17.066667-20.48 0-37.546667 3.413333-58.026667 6.826667-92.16 23.893333-153.6 98.986667-136.533333 174.08 13.653333 54.613333 68.266667 92.16 143.36 92.16 20.48 0 37.546667-3.413333 58.026666-6.826667 88.746667-23.893333 146.773333-95.573333 136.533334-163.84V204.8c3.413333 3.413333 10.24 6.826667 13.653333 10.24 197.973333 133.12 95.573333 327.68 92.16 327.68v3.413333l-34.133333 68.266667c-6.826667 17.066667 0 37.546667 13.653333 44.373333 3.413333 3.413333 10.24 3.413333 13.653333 3.413334 13.653333 0 23.893333-6.826667 30.72-20.48l34.133334-68.266667c34.133333-47.786667 105.813333-266.24-112.64-413.013333z" fill="" /></svg>