<svg xmlns="http://www.w3.org/2000/svg" width="905" height="196" viewBox="0 0 905 196" version="1.1"><path d="M 42.557 38.223 L 41 40.445 41 44.723 L 41 49 43 51 C 44.100 52.100, 45.364 53, 45.809 53 C 46.254 53, 47.381 52.438, 48.313 51.750 L 50.008 50.500 50.139 44.586 L 50.271 38.671 48.444 37.336 C 47.440 36.601, 46.054 36, 45.366 36 C 44.677 36, 43.413 37, 42.557 38.223 M 827.956 70.553 C 827.247 71.408, 826.667 73.472, 826.667 75.141 L 826.667 78.176 828.083 79.094 C 828.862 79.598, 830.391 79.896, 831.480 79.756 L 833.460 79.500 834.409 76.790 L 835.358 74.081 834.200 71.540 L 833.043 69 831.144 69 C 830.099 69, 828.665 69.699, 827.956 70.553 M 839.427 69.765 C 838.837 70.169, 838.050 71.323, 837.678 72.329 C 837.306 73.336, 837.276 75.252, 837.611 76.588 L 838.221 79.017 840.766 79.656 L 843.311 80.295 844.656 78.456 C 845.395 77.445, 846 75.611, 846 74.380 C 846 73.150, 845.293 71.436, 844.429 70.571 C 843.564 69.707, 842.327 69.007, 841.679 69.015 C 841.030 69.024, 840.017 69.361, 839.427 69.765 M 855.571 70.571 C 854.707 71.436, 854 73.150, 854 74.380 C 854 75.611, 854.605 77.445, 855.344 78.456 L 856.689 80.295 859.329 79.632 L 861.970 78.970 862.595 76.477 L 863.220 73.985 861.587 71.493 C 860.689 70.122, 859.321 69, 858.548 69 C 857.775 69, 856.436 69.707, 855.571 70.571 M 866.571 70.571 C 865.707 71.436, 865 73.150, 865 74.380 C 865 75.611, 865.605 77.445, 866.344 78.456 L 867.689 80.295 870.234 79.656 L 872.779 79.017 873.435 76.403 L 874.091 73.788 872.523 71.394 C 871.660 70.077, 870.321 69, 869.548 69 C 868.775 69, 867.436 69.707, 866.571 70.571 M 43.278 71.250 C 42.746 71.938, 42.005 73.351, 41.633 74.391 L 40.955 76.282 42.541 78.702 L 44.126 81.123 46.293 80.811 L 48.460 80.500 49.409 77.790 L 50.358 75.081 49.200 72.540 L 48.043 70 46.144 70 C 45.099 70, 43.810 70.563, 43.278 71.250 M 53.477 72.394 L 51.909 74.788 52.565 77.403 L 53.221 80.017 55.766 80.656 L 58.311 81.295 59.656 79.456 C 60.395 78.445, 61 76.774, 61 75.743 C 61 74.712, 60.534 72.998, 59.965 71.934 L 58.930 70 56.988 70 L 55.046 70 53.477 72.394 M 70.571 71.571 C 69.707 72.436, 69 74.150, 69 75.380 C 69 76.611, 69.605 78.445, 70.344 79.456 L 71.689 81.295 74.234 80.656 L 76.779 80.017 77.389 77.588 C 77.724 76.252, 77.694 74.336, 77.322 73.329 C 76.950 72.323, 76.163 71.169, 75.573 70.765 C 74.983 70.361, 73.970 70.024, 73.321 70.015 C 72.673 70.007, 71.436 70.707, 70.571 71.571 M 81.571 71.571 C 80.707 72.436, 80 74.150, 80 75.380 C 80 76.611, 80.605 78.445, 81.344 79.456 L 82.689 81.295 85.234 80.656 L 87.779 80.017 88.435 77.403 L 89.091 74.788 87.523 72.394 C 86.660 71.077, 85.321 70, 84.548 70 C 83.775 70, 82.436 70.707, 81.571 71.571 M 829 74.500 L 829 78 830.441 78 C 831.234 78, 832.176 77.524, 832.535 76.943 C 832.894 76.362, 832.912 74.787, 832.575 73.443 L 831.962 71 830.481 71 L 829 71 829 74.500 M 839.815 72.750 C 839.585 73.713, 839.565 75.287, 839.772 76.250 C 839.978 77.213, 840.741 78, 841.466 78 C 842.192 78, 843.069 77.262, 843.416 76.359 C 843.762 75.457, 843.780 73.882, 843.455 72.859 C 843.131 71.837, 842.273 71, 841.549 71 C 840.825 71, 840.045 71.787, 839.815 72.750 M 856.545 72.859 C 856.220 73.882, 856.238 75.457, 856.584 76.359 C 856.931 77.262, 857.788 78, 858.490 78 C 859.192 78, 859.955 77.213, 860.185 76.250 C 860.415 75.287, 860.435 73.713, 860.228 72.750 C 860.022 71.787, 859.242 71, 858.494 71 C 857.746 71, 856.869 71.837, 856.545 72.859 M 867.545 72.859 C 867.220 73.882, 867.238 75.457, 867.584 76.359 C 867.931 77.262, 868.841 78, 869.607 78 L 871 78 871 74.500 L 871 71 869.567 71 C 868.779 71, 867.869 71.837, 867.545 72.859 M 44 75.500 L 44 79 45.441 79 C 46.234 79, 47.176 78.524, 47.535 77.943 C 47.894 77.362, 47.912 75.787, 47.575 74.443 L 46.962 72 45.481 72 L 44 72 44 75.500 M 55 75.500 L 55 79 56.393 79 C 57.159 79, 58.069 78.262, 58.416 77.359 C 58.762 76.457, 58.780 74.882, 58.455 73.859 C 58.131 72.837, 57.221 72, 56.433 72 L 55 72 55 75.500 M 71.545 73.859 C 71.220 74.882, 71.238 76.457, 71.584 77.359 C 71.931 78.262, 72.788 79, 73.490 79 C 74.192 79, 74.955 78.213, 75.185 77.250 C 75.415 76.287, 75.435 74.713, 75.228 73.750 C 75.022 72.787, 74.242 72, 73.494 72 C 72.746 72, 71.869 72.837, 71.545 73.859 M 82.425 74.443 C 82.088 75.787, 82.106 77.362, 82.465 77.943 C 82.824 78.524, 83.766 79, 84.559 79 L 86 79 86 75.500 L 86 72 84.519 72 L 83.038 72 82.425 74.443 M 849 74 C 849 74.550, 849.450 75, 850 75 C 850.550 75, 851 74.550, 851 74 C 851 73.450, 850.550 73, 850 73 C 849.450 73, 849 73.450, 849 74 M 64 75 C 64 75.550, 64.450 76, 65 76 C 65.550 76, 66 75.550, 66 75 C 66 74.450, 65.550 74, 65 74 C 64.450 74, 64 74.450, 64 75 M 849 78.500 C 849 79.325, 849.450 80, 850 80 C 850.550 80, 851 79.325, 851 78.500 C 851 77.675, 850.550 77, 850 77 C 849.450 77, 849 77.675, 849 78.500 M 64 79.500 C 64 80.325, 64.450 81, 65 81 C 65.550 81, 66 80.325, 66 79.500 C 66 78.675, 65.550 78, 65 78 C 64.450 78, 64 78.675, 64 79.500 M 444 132.371 L 444 156.882 445.028 157.517 L 446.056 158.153 452.778 154.447 C 456.475 152.409, 462.200 149.302, 465.500 147.544 C 468.800 145.785, 475.887 141.980, 481.250 139.087 C 486.613 136.194, 490.994 133.304, 490.987 132.664 L 490.974 131.500 469.341 120 C 457.443 113.675, 446.874 108.356, 445.854 108.180 L 444 107.861 444 132.371 M 326 132.500 L 326 151 328.500 151 L 331 151 331 143.500 C 331 139.375, 331.337 136.007, 331.750 136.015 C 332.163 136.023, 338.784 139.398, 346.464 143.515 C 354.144 147.632, 361.006 151, 361.714 151 L 363 151 363 133.059 L 363 115.118 362.187 114.616 C 361.740 114.340, 354.717 117.688, 346.581 122.057 C 338.444 126.426, 331.610 130, 331.394 130 C 331.177 130, 331 126.400, 331 122 L 331 114 328.500 114 L 326 114 326 132.500 M 553.622 114.712 C 553.280 115.054, 553 123.358, 553 133.167 L 553 151 554.286 151 C 554.994 151, 561.856 147.632, 569.536 143.515 C 577.216 139.398, 583.837 136.023, 584.250 136.015 C 584.663 136.007, 585 139.375, 585 143.500 L 585 151 587.500 151 L 590 151 590 132.500 L 590 114 587.500 114 L 585 114 585 122 C 585 126.400, 584.791 130, 584.536 130 C 584.280 130, 579.525 127.517, 573.969 124.483 C 568.413 121.449, 561.702 117.869, 559.056 116.528 C 556.409 115.187, 553.964 114.370, 553.622 114.712" stroke="none" fill="#15172a" fill-rule="evenodd"/><path d="M 41.980 37.524 C 41.284 38.362, 40.909 39.242, 41.145 39.479 C 41.382 39.715, 42.125 39.030, 42.796 37.955 C 43.468 36.880, 43.843 36, 43.631 36 C 43.419 36, 42.676 36.686, 41.980 37.524 M 47 36.393 C 47 36.609, 47.698 37.054, 48.552 37.382 L 50.104 37.977 49.493 36.989 C 49.157 36.445, 48.459 36, 47.941 36 C 47.423 36, 47 36.177, 47 36.393 M 50.135 44.569 L 50.018 49.638 460.868 49.559 L 871.718 49.479 873.359 48.117 C 874.261 47.368, 875 45.740, 875 44.500 C 875 43.260, 874.393 41.741, 873.650 41.125 L 872.301 40.005 461.276 39.752 L 50.252 39.500 50.135 44.569 M 41 49.878 C 41 50.360, 41.686 51.324, 42.524 52.020 C 43.362 52.716, 44.187 53.108, 44.357 52.893 C 44.528 52.677, 43.842 51.712, 42.833 50.750 C 41.825 49.788, 41 49.395, 41 49.878 M 47 52.500 C 47 52.775, 47.225 53, 47.500 53 C 47.775 53, 48 52.775, 48 52.500 C 48 52.225, 47.775 52, 47.500 52 C 47.225 52, 47 52.225, 47 52.500 M 830.333 68.667 C 830.700 69.033, 831.300 69.033, 831.667 68.667 C 832.033 68.300, 831.733 68, 831 68 C 830.267 68, 829.967 68.300, 830.333 68.667 M 841 68.500 C 841 68.775, 841.225 69, 841.500 69 C 841.775 69, 842 68.775, 842 68.500 C 842 68.225, 841.775 68, 841.500 68 C 841.225 68, 841 68.225, 841 68.500 M 858 68.500 C 858 68.775, 858.225 69, 858.500 69 C 858.775 69, 859 68.775, 859 68.500 C 859 68.225, 858.775 68, 858.500 68 C 858.225 68, 858 68.225, 858 68.500 M 869 68.500 C 869 68.775, 869.225 69, 869.500 69 C 869.775 69, 870 68.775, 870 68.500 C 870 68.225, 869.775 68, 869.500 68 C 869.225 68, 869 68.225, 869 68.500 M 45 69.500 C 45 69.775, 45.225 70, 45.500 70 C 45.775 70, 46 69.775, 46 69.500 C 46 69.225, 45.775 69, 45.500 69 C 45.225 69, 45 69.225, 45 69.500 M 56 69.500 C 56 69.775, 56.225 70, 56.500 70 C 56.775 70, 57 69.775, 57 69.500 C 57 69.225, 56.775 69, 56.500 69 C 56.225 69, 56 69.225, 56 69.500 M 73 69.500 C 73 69.775, 73.225 70, 73.500 70 C 73.775 70, 74 69.775, 74 69.500 C 74 69.225, 73.775 69, 73.500 69 C 73.225 69, 73 69.225, 73 69.500 M 84 69.500 C 84 69.775, 84.225 70, 84.500 70 C 84.775 70, 85 69.775, 85 69.500 C 85 69.225, 84.775 69, 84.500 69 C 84.225 69, 84 69.225, 84 69.500 M 827.028 70.466 C 826.359 71.273, 825.966 72.383, 826.155 72.934 C 826.345 73.484, 827.020 72.824, 827.656 71.467 C 828.292 70.110, 828.684 69, 828.528 69 C 828.372 69, 827.697 69.660, 827.028 70.466 M 833 69.500 C 833 69.775, 833.225 70, 833.500 70 C 833.775 70, 834 69.775, 834 69.500 C 834 69.225, 833.775 69, 833.500 69 C 833.225 69, 833 69.225, 833 69.500 M 839 69.500 C 839 69.775, 839.225 70, 839.500 70 C 839.775 70, 840 69.775, 840 69.500 C 840 69.225, 839.775 69, 839.500 69 C 839.225 69, 839 69.225, 839 69.500 M 843.333 69.667 C 843.700 70.033, 844.300 70.033, 844.667 69.667 C 845.033 69.300, 844.733 69, 844 69 C 843.267 69, 842.967 69.300, 843.333 69.667 M 856 69.500 C 856 69.775, 856.225 70, 856.500 70 C 856.775 70, 857 69.775, 857 69.500 C 857 69.225, 856.775 69, 856.500 69 C 856.225 69, 856 69.225, 856 69.500 M 861.100 70.705 C 861.829 71.917, 862.640 72.694, 862.903 72.431 C 863.166 72.168, 862.570 71.176, 861.579 70.226 L 859.776 68.500 861.100 70.705 M 866.333 69.667 C 866.700 70.033, 867.300 70.033, 867.667 69.667 C 868.033 69.300, 867.733 69, 867 69 C 866.267 69, 865.967 69.300, 866.333 69.667 M 872.100 70.705 C 872.829 71.917, 873.640 72.694, 873.903 72.431 C 874.166 72.168, 873.570 71.176, 872.579 70.226 L 870.776 68.500 872.100 70.705 M 42.028 71.466 C 41.359 72.273, 40.966 73.383, 41.155 73.934 C 41.345 74.484, 42.020 73.824, 42.656 72.467 C 43.292 71.110, 43.684 70, 43.528 70 C 43.372 70, 42.697 70.660, 42.028 71.466 M 48 70.500 C 48 70.775, 48.225 71, 48.500 71 C 48.775 71, 49 70.775, 49 70.500 C 49 70.225, 48.775 70, 48.500 70 C 48.225 70, 48 70.225, 48 70.500 M 52.980 71.524 C 52.284 72.362, 51.909 73.242, 52.145 73.479 C 52.382 73.715, 53.125 73.030, 53.796 71.955 C 54.468 70.880, 54.843 70, 54.631 70 C 54.419 70, 53.676 70.686, 52.980 71.524 M 71 70.500 C 71 70.775, 71.225 71, 71.500 71 C 71.775 71, 72 70.775, 72 70.500 C 72 70.225, 71.775 70, 71.500 70 C 71.225 70, 71 70.225, 71 70.500 M 75 70.500 C 75 70.775, 75.225 71, 75.500 71 C 75.775 71, 76 70.775, 76 70.500 C 76 70.225, 75.775 70, 75.500 70 C 75.225 70, 75 70.225, 75 70.500 M 81.333 70.667 C 81.700 71.033, 82.300 71.033, 82.667 70.667 C 83.033 70.300, 82.733 70, 82 70 C 81.267 70, 80.967 70.300, 81.333 70.667 M 87.100 71.705 C 87.829 72.917, 88.640 73.694, 88.903 73.431 C 89.166 73.168, 88.570 72.176, 87.579 71.226 L 85.776 69.500 87.100 71.705 M 829.813 71.683 C 830.534 71.972, 831.397 71.936, 831.729 71.604 C 832.061 71.272, 831.471 71.036, 830.417 71.079 L 828.500 71.158 829.813 71.683 M 834 71.500 C 834 71.775, 834.225 72, 834.500 72 C 834.775 72, 835 71.775, 835 71.500 C 835 71.225, 834.775 71, 834.500 71 C 834.225 71, 834 71.225, 834 71.500 M 837 72 C 837 72.733, 837.300 73.033, 837.667 72.667 C 838.033 72.300, 838.033 71.700, 837.667 71.333 C 837.300 70.967, 837 71.267, 837 72 M 840.813 71.683 C 841.534 71.972, 842.397 71.936, 842.729 71.604 C 843.061 71.272, 842.471 71.036, 841.417 71.079 L 839.500 71.158 840.813 71.683 M 845 71.500 C 845 71.775, 845.225 72, 845.500 72 C 845.775 72, 846 71.775, 846 71.500 C 846 71.225, 845.775 71, 845.500 71 C 845.225 71, 845 71.225, 845 71.500 M 854 71.500 C 854 71.775, 854.225 72, 854.500 72 C 854.775 72, 855 71.775, 855 71.500 C 855 71.225, 854.775 71, 854.500 71 C 854.225 71, 854 71.225, 854 71.500 M 857 71.500 C 857 71.775, 857.225 72, 857.500 72 C 857.775 72, 858 71.775, 858 71.500 C 858 71.225, 857.775 71, 857.500 71 C 857.225 71, 857 71.225, 857 71.500 M 859 71.500 C 859 71.775, 859.225 72, 859.500 72 C 859.775 72, 860 71.775, 860 71.500 C 860 71.225, 859.775 71, 859.500 71 C 859.225 71, 859 71.225, 859 71.500 M 865 71.500 C 865 71.775, 865.225 72, 865.500 72 C 865.775 72, 866 71.775, 866 71.500 C 866 71.225, 865.775 71, 865.500 71 C 865.225 71, 865 71.225, 865 71.500 M 868 71.500 C 868 71.775, 868.225 72, 868.500 72 C 868.775 72, 869 71.775, 869 71.500 C 869 71.225, 868.775 71, 868.500 71 C 868.225 71, 868 71.225, 868 71.500 M 870 71.500 C 870 71.775, 870.225 72, 870.500 72 C 870.775 72, 871 71.775, 871 71.500 C 871 71.225, 870.775 71, 870.500 71 C 870.225 71, 870 71.225, 870 71.500 M 44.813 72.683 C 45.534 72.972, 46.397 72.936, 46.729 72.604 C 47.061 72.272, 46.471 72.036, 45.417 72.079 L 43.500 72.158 44.813 72.683 M 49 72.500 C 49 72.775, 49.225 73, 49.500 73 C 49.775 73, 50 72.775, 50 72.500 C 50 72.225, 49.775 72, 49.500 72 C 49.225 72, 49 72.225, 49 72.500 M 55 72.500 C 55 72.775, 55.225 73, 55.500 73 C 55.775 73, 56 72.775, 56 72.500 C 56 72.225, 55.775 72, 55.500 72 C 55.225 72, 55 72.225, 55 72.500 M 57 72.500 C 57 72.775, 57.225 73, 57.500 73 C 57.775 73, 58 72.775, 58 72.500 C 58 72.225, 57.775 72, 57.500 72 C 57.225 72, 57 72.225, 57 72.500 M 60 72.500 C 60 72.775, 60.225 73, 60.500 73 C 60.775 73, 61 72.775, 61 72.500 C 61 72.225, 60.775 72, 60.500 72 C 60.225 72, 60 72.225, 60 72.500 M 69 72.500 C 69 72.775, 69.225 73, 69.500 73 C 69.775 73, 70 72.775, 70 72.500 C 70 72.225, 69.775 72, 69.500 72 C 69.225 72, 69 72.225, 69 72.500 M 72.813 72.683 C 73.534 72.972, 74.397 72.936, 74.729 72.604 C 75.061 72.272, 74.471 72.036, 73.417 72.079 L 71.500 72.158 72.813 72.683 M 77 73 C 77 73.733, 77.300 74.033, 77.667 73.667 C 78.033 73.300, 78.033 72.700, 77.667 72.333 C 77.300 71.967, 77 72.267, 77 73 M 80 72.500 C 80 72.775, 80.225 73, 80.500 73 C 80.775 73, 81 72.775, 81 72.500 C 81 72.225, 80.775 72, 80.500 72 C 80.225 72, 80 72.225, 80 72.500 M 83 72.500 C 83 72.775, 83.225 73, 83.500 73 C 83.775 73, 84 72.775, 84 72.500 C 84 72.225, 83.775 72, 83.500 72 C 83.225 72, 83 72.225, 83 72.500 M 85 72.500 C 85 72.775, 85.225 73, 85.500 73 C 85.775 73, 86 72.775, 86 72.500 C 86 72.225, 85.775 72, 85.500 72 C 85.225 72, 85 72.225, 85 72.500 M 848.446 73.087 L 847.774 74.174 848.887 75.287 L 850 76.400 851.113 75.287 L 852.226 74.174 851.554 73.087 C 851.184 72.489, 850.485 72, 850 72 C 849.515 72, 848.816 72.489, 848.446 73.087 M 63.446 74.087 L 62.774 75.174 63.887 76.287 L 65 77.400 66.113 76.287 L 67.226 75.174 66.554 74.087 C 66.184 73.489, 65.485 73, 65 73 C 64.515 73, 63.816 73.489, 63.446 74.087 M 831.825 75.326 L 831.248 78.152 832.218 77.182 C 832.751 76.649, 833.011 75.377, 832.794 74.356 L 832.401 72.500 831.825 75.326 M 843.079 74.583 L 843.158 76.500 843.683 75.188 C 843.972 74.466, 843.936 73.603, 843.604 73.271 C 843.272 72.939, 843.036 73.529, 843.079 74.583 M 849 74 C 849 74.550, 849.450 75, 850 75 C 850.550 75, 851 74.550, 851 74 C 851 73.450, 850.550 73, 850 73 C 849.450 73, 849 73.450, 849 74 M 856.079 74.583 L 856.158 76.500 856.683 75.188 C 856.972 74.466, 856.936 73.603, 856.604 73.271 C 856.272 72.939, 856.036 73.529, 856.079 74.583 M 867.079 74.583 L 867.158 76.500 867.683 75.188 C 867.972 74.466, 867.936 73.603, 867.604 73.271 C 867.272 72.939, 867.036 73.529, 867.079 74.583 M 46.825 76.326 L 46.248 79.152 47.218 78.182 C 47.751 77.649, 48.011 76.377, 47.794 75.356 L 47.401 73.500 46.825 76.326 M 58.079 75.583 L 58.158 77.500 58.683 76.188 C 58.972 75.466, 58.936 74.603, 58.604 74.271 C 58.272 73.939, 58.036 74.529, 58.079 75.583 M 64 75 C 64 75.550, 64.450 76, 65 76 C 65.550 76, 66 75.550, 66 75 C 66 74.450, 65.550 74, 65 74 C 64.450 74, 64 74.450, 64 75 M 71.079 75.583 L 71.158 77.500 71.683 76.188 C 71.972 75.466, 71.936 74.603, 71.604 74.271 C 71.272 73.939, 71.036 74.529, 71.079 75.583 M 82.336 75.990 L 82.500 78.480 84.500 78.682 L 86.500 78.885 84.811 78.381 C 83.883 78.104, 82.909 76.892, 82.648 75.689 L 82.172 73.500 82.336 75.990 M 835 74.500 C 835 74.775, 835.225 75, 835.500 75 C 835.775 75, 836 74.775, 836 74.500 C 836 74.225, 835.775 74, 835.500 74 C 835.225 74, 835 74.225, 835 74.500 M 839 74.500 C 839 74.775, 839.225 75, 839.500 75 C 839.775 75, 840 74.775, 840 74.500 C 840 74.225, 839.775 74, 839.500 74 C 839.225 74, 839 74.225, 839 74.500 M 860 74.500 C 860 74.775, 860.225 75, 860.500 75 C 860.775 75, 861 74.775, 861 74.500 C 861 74.225, 860.775 74, 860.500 74 C 860.225 74, 860 74.225, 860 74.500 M 864 74.500 C 864 74.775, 864.225 75, 864.500 75 C 864.775 75, 865 74.775, 865 74.500 C 865 74.225, 864.775 74, 864.500 74 C 864.225 74, 864 74.225, 864 74.500 M 75 75.500 C 75 75.775, 75.225 76, 75.500 76 C 75.775 76, 76 75.775, 76 75.500 C 76 75.225, 75.775 75, 75.500 75 C 75.225 75, 75 75.225, 75 75.500 M 826 77 C 826 77.733, 826.300 78.033, 826.667 77.667 C 827.033 77.300, 827.033 76.700, 826.667 76.333 C 826.300 75.967, 826 76.267, 826 77 M 837 77 C 837 77.733, 837.300 78.033, 837.667 77.667 C 838.033 77.300, 838.033 76.700, 837.667 76.333 C 837.300 75.967, 837 76.267, 837 77 M 873 77 C 873 77.733, 873.300 78.033, 873.667 77.667 C 874.033 77.300, 874.033 76.700, 873.667 76.333 C 873.300 75.967, 873 76.267, 873 77 M 41 77.711 C 41 78.285, 41.788 79.373, 42.750 80.128 L 44.500 81.500 43.033 79.500 C 42.226 78.400, 41.439 77.313, 41.283 77.083 C 41.127 76.854, 41 77.137, 41 77.711 M 52 78 C 52 78.733, 52.300 79.033, 52.667 78.667 C 53.033 78.300, 53.033 77.700, 52.667 77.333 C 52.300 76.967, 52 77.267, 52 78 M 77 78 C 77 78.733, 77.300 79.033, 77.667 78.667 C 78.033 78.300, 78.033 77.700, 77.667 77.333 C 77.300 76.967, 77 77.267, 77 78 M 88 78 C 88 78.733, 88.300 79.033, 88.667 78.667 C 89.033 78.300, 89.033 77.700, 88.667 77.333 C 88.300 76.967, 88 77.267, 88 78 M 829 77.500 C 829 77.775, 829.225 78, 829.500 78 C 829.775 78, 830 77.775, 830 77.500 C 830 77.225, 829.775 77, 829.500 77 C 829.225 77, 829 77.225, 829 77.500 M 834 77.500 C 834 77.775, 834.225 78, 834.500 78 C 834.775 78, 835 77.775, 835 77.500 C 835 77.225, 834.775 77, 834.500 77 C 834.225 77, 834 77.225, 834 77.500 M 840 77.500 C 840 77.775, 840.225 78, 840.500 78 C 840.775 78, 841 77.775, 841 77.500 C 841 77.225, 840.775 77, 840.500 77 C 840.225 77, 840 77.225, 840 77.500 M 842 77.500 C 842 77.775, 842.225 78, 842.500 78 C 842.775 78, 843 77.775, 843 77.500 C 843 77.225, 842.775 77, 842.500 77 C 842.225 77, 842 77.225, 842 77.500 M 845 77.500 C 845 77.775, 845.225 78, 845.500 78 C 845.775 78, 846 77.775, 846 77.500 C 846 77.225, 845.775 77, 845.500 77 C 845.225 77, 845 77.225, 845 77.500 M 848.079 78.583 L 848.158 80.500 848.683 79.188 C 848.972 78.466, 848.936 77.603, 848.604 77.271 C 848.272 76.939, 848.036 77.529, 848.079 78.583 M 851.079 78.583 L 851.158 80.500 851.683 79.188 C 851.972 78.466, 851.936 77.603, 851.604 77.271 C 851.272 76.939, 851.036 77.529, 851.079 78.583 M 854 77.500 C 854 77.775, 854.225 78, 854.500 78 C 854.775 78, 855 77.775, 855 77.500 C 855 77.225, 854.775 77, 854.500 77 C 854.225 77, 854 77.225, 854 77.500 M 857 77.500 C 857 77.775, 857.225 78, 857.500 78 C 857.775 78, 858 77.775, 858 77.500 C 858 77.225, 857.775 77, 857.500 77 C 857.225 77, 857 77.225, 857 77.500 M 859 77.500 C 859 77.775, 859.225 78, 859.500 78 C 859.775 78, 860 77.775, 860 77.500 C 860 77.225, 859.775 77, 859.500 77 C 859.225 77, 859 77.225, 859 77.500 M 862 77.500 C 862 77.775, 862.225 78, 862.500 78 C 862.775 78, 863 77.775, 863 77.500 C 863 77.225, 862.775 77, 862.500 77 C 862.225 77, 862 77.225, 862 77.500 M 865 77.500 C 865 77.775, 865.225 78, 865.500 78 C 865.775 78, 866 77.775, 866 77.500 C 866 77.225, 865.775 77, 865.500 77 C 865.225 77, 865 77.225, 865 77.500 M 868.813 77.683 C 869.534 77.972, 870.397 77.936, 870.729 77.604 C 871.061 77.272, 870.471 77.036, 869.417 77.079 L 867.500 77.158 868.813 77.683 M 44 78.500 C 44 78.775, 44.225 79, 44.500 79 C 44.775 79, 45 78.775, 45 78.500 C 45 78.225, 44.775 78, 44.500 78 C 44.225 78, 44 78.225, 44 78.500 M 49 78.500 C 49 78.775, 49.225 79, 49.500 79 C 49.775 79, 50 78.775, 50 78.500 C 50 78.225, 49.775 78, 49.500 78 C 49.225 78, 49 78.225, 49 78.500 M 55 78.500 C 55 78.775, 55.225 79, 55.500 79 C 55.775 79, 56 78.775, 56 78.500 C 56 78.225, 55.775 78, 55.500 78 C 55.225 78, 55 78.225, 55 78.500 M 57 78.500 C 57 78.775, 57.225 79, 57.500 79 C 57.775 79, 58 78.775, 58 78.500 C 58 78.225, 57.775 78, 57.500 78 C 57.225 78, 57 78.225, 57 78.500 M 60 78.500 C 60 78.775, 60.225 79, 60.500 79 C 60.775 79, 61 78.775, 61 78.500 C 61 78.225, 60.775 78, 60.500 78 C 60.225 78, 60 78.225, 60 78.500 M 66.079 79.583 L 66.158 81.500 66.683 80.188 C 66.972 79.466, 66.936 78.603, 66.604 78.271 C 66.272 77.939, 66.036 78.529, 66.079 79.583 M 69 78.500 C 69 78.775, 69.225 79, 69.500 79 C 69.775 79, 70 78.775, 70 78.500 C 70 78.225, 69.775 78, 69.500 78 C 69.225 78, 69 78.225, 69 78.500 M 72 78.500 C 72 78.775, 72.225 79, 72.500 79 C 72.775 79, 73 78.775, 73 78.500 C 73 78.225, 72.775 78, 72.500 78 C 72.225 78, 72 78.225, 72 78.500 M 74 78.500 C 74 78.775, 74.225 79, 74.500 79 C 74.775 79, 75 78.775, 75 78.500 C 75 78.225, 74.775 78, 74.500 78 C 74.225 78, 74 78.225, 74 78.500 M 80 78.500 C 80 78.775, 80.225 79, 80.500 79 C 80.775 79, 81 78.775, 81 78.500 C 81 78.225, 80.775 78, 80.500 78 C 80.225 78, 80 78.225, 80 78.500 M 63 80 C 63 80.733, 63.300 81.033, 63.667 80.667 C 64.033 80.300, 64.033 79.700, 63.667 79.333 C 63.300 78.967, 63 79.267, 63 80 M 828 79.500 C 828 79.775, 828.225 80, 828.500 80 C 828.775 80, 829 79.775, 829 79.500 C 829 79.225, 828.775 79, 828.500 79 C 828.225 79, 828 79.225, 828 79.500 M 833 79.500 C 833 79.775, 833.225 80, 833.500 80 C 833.775 80, 834 79.775, 834 79.500 C 834 79.225, 833.775 79, 833.500 79 C 833.225 79, 833 79.225, 833 79.500 M 839 79.500 C 839 79.775, 839.225 80, 839.500 80 C 839.775 80, 840 79.775, 840 79.500 C 840 79.225, 839.775 79, 839.500 79 C 839.225 79, 839 79.225, 839 79.500 M 844 79.500 C 844 79.775, 844.225 80, 844.500 80 C 844.775 80, 845 79.775, 845 79.500 C 845 79.225, 844.775 79, 844.500 79 C 844.225 79, 844 79.225, 844 79.500 M 860 79.500 C 860 79.775, 860.225 80, 860.500 80 C 860.775 80, 861 79.775, 861 79.500 C 861 79.225, 860.775 79, 860.500 79 C 860.225 79, 860 79.225, 860 79.500 M 866 79.500 C 866 79.775, 866.225 80, 866.500 80 C 866.775 80, 867 79.775, 867 79.500 C 867 79.225, 866.775 79, 866.500 79 C 866.225 79, 866 79.225, 866 79.500 M 871 79.500 C 871 79.775, 871.225 80, 871.500 80 C 871.775 80, 872 79.775, 872 79.500 C 872 79.225, 871.775 79, 871.500 79 C 871.225 79, 871 79.225, 871 79.500 M 48 80.500 C 48 80.775, 48.225 81, 48.500 81 C 48.775 81, 49 80.775, 49 80.500 C 49 80.225, 48.775 80, 48.500 80 C 48.225 80, 48 80.225, 48 80.500 M 54 80.500 C 54 80.775, 54.225 81, 54.500 81 C 54.775 81, 55 80.775, 55 80.500 C 55 80.225, 54.775 80, 54.500 80 C 54.225 80, 54 80.225, 54 80.500 M 59 80.500 C 59 80.775, 59.225 81, 59.500 81 C 59.775 81, 60 80.775, 60 80.500 C 60 80.225, 59.775 80, 59.500 80 C 59.225 80, 59 80.225, 59 80.500 M 75 80.500 C 75 80.775, 75.225 81, 75.500 81 C 75.775 81, 76 80.775, 76 80.500 C 76 80.225, 75.775 80, 75.500 80 C 75.225 80, 75 80.225, 75 80.500 M 81 80.500 C 81 80.775, 81.225 81, 81.500 81 C 81.775 81, 82 80.775, 82 80.500 C 82 80.225, 81.775 80, 81.500 80 C 81.225 80, 81 80.225, 81 80.500 M 86 80.500 C 86 80.775, 86.225 81, 86.500 81 C 86.775 81, 87 80.775, 87 80.500 C 87 80.225, 86.775 80, 86.500 80 C 86.225 80, 86 80.225, 86 80.500 M 830 80.500 C 830 80.775, 830.225 81, 830.500 81 C 830.775 81, 831 80.775, 831 80.500 C 831 80.225, 830.775 80, 830.500 80 C 830.225 80, 830 80.225, 830 80.500 M 841.333 80.667 C 841.700 81.033, 842.300 81.033, 842.667 80.667 C 843.033 80.300, 842.733 80, 842 80 C 841.267 80, 840.967 80.300, 841.333 80.667 M 869 80.500 C 869 80.775, 869.225 81, 869.500 81 C 869.775 81, 870 80.775, 870 80.500 C 870 80.225, 869.775 80, 869.500 80 C 869.225 80, 869 80.225, 869 80.500 M 56.333 81.667 C 56.700 82.033, 57.300 82.033, 57.667 81.667 C 58.033 81.300, 57.733 81, 57 81 C 56.267 81, 55.967 81.300, 56.333 81.667 M 73 81.500 C 73 81.775, 73.225 82, 73.500 82 C 73.775 82, 74 81.775, 74 81.500 C 74 81.225, 73.775 81, 73.500 81 C 73.225 81, 73 81.225, 73 81.500 M 84 81.500 C 84 81.775, 84.225 82, 84.500 82 C 84.775 82, 85 81.775, 85 81.500 C 85 81.225, 84.775 81, 84.500 81 C 84.225 81, 84 81.225, 84 81.500 M 446 107.500 C 446 107.775, 446.225 108, 446.500 108 C 446.775 108, 447 107.775, 447 107.500 C 447 107.225, 446.775 107, 446.500 107 C 446.225 107, 446 107.225, 446 107.500 M 448 108.500 C 448 108.775, 448.225 109, 448.500 109 C 448.775 109, 449 108.775, 449 108.500 C 449 108.225, 448.775 108, 448.500 108 C 448.225 108, 448 108.225, 448 108.500 M 450 109.449 C 450 109.724, 451.350 110.647, 453 111.500 C 454.650 112.353, 456 112.826, 456 112.551 C 456 112.276, 454.650 111.353, 453 110.500 C 451.350 109.647, 450 109.174, 450 109.449 M 457 113.500 C 457 113.775, 457.225 114, 457.500 114 C 457.775 114, 458 113.775, 458 113.500 C 458 113.225, 457.775 113, 457.500 113 C 457.225 113, 457 113.225, 457 113.500 M 325.467 133 L 325.500 151.500 328.500 151.500 L 331.500 151.500 331.572 143.500 L 331.644 135.500 331.280 143.250 L 330.916 151 328.480 151 L 326.044 151 325.739 132.750 L 325.434 114.500 325.467 133 M 331.150 121.750 C 331.067 126.287, 331.337 130.001, 331.750 130.001 C 332.163 130.002, 332.373 127.415, 332.217 124.251 C 332.062 121.088, 331.792 117.375, 331.617 116 C 331.443 114.625, 331.232 117.213, 331.150 121.750 M 360 114.500 C 360 114.775, 360.225 115, 360.500 115 C 360.775 115, 361 114.775, 361 114.500 C 361 114.225, 360.775 114, 360.500 114 C 360.225 114, 360 114.225, 360 114.500 M 362 114.500 C 362 114.775, 362.225 115, 362.500 115 C 362.775 115, 363 114.775, 363 114.500 C 363 114.225, 362.775 114, 362.500 114 C 362.225 114, 362 114.225, 362 114.500 M 459 114.500 C 459 114.775, 459.225 115, 459.500 115 C 459.775 115, 460 114.775, 460 114.500 C 460 114.225, 459.775 114, 459.500 114 C 459.225 114, 459 114.225, 459 114.500 M 553 114.500 C 553 114.775, 553.225 115, 553.500 115 C 553.775 115, 554 114.775, 554 114.500 C 554 114.225, 553.775 114, 553.500 114 C 553.225 114, 553 114.225, 553 114.500 M 555 114.500 C 555 114.775, 555.225 115, 555.500 115 C 555.775 115, 556 114.775, 556 114.500 C 556 114.225, 555.775 114, 555.500 114 C 555.225 114, 555 114.225, 555 114.500 M 583.826 122.002 C 583.647 126.404, 583.837 130.004, 584.250 130.002 C 584.663 130.001, 585 126.400, 585 122 C 585 117.600, 584.809 114, 584.576 114 C 584.343 114, 584.006 117.601, 583.826 122.002 M 590.225 132.250 L 590 151 587.542 151 L 585.084 151 584.729 143.750 L 584.374 136.500 584.437 144 L 584.500 151.500 587.256 151.817 L 590.011 152.134 590.530 150.783 C 590.815 150.041, 590.914 141.348, 590.749 131.466 L 590.451 113.500 590.225 132.250 M 358 115.500 C 358 115.775, 358.225 116, 358.500 116 C 358.775 116, 359 115.775, 359 115.500 C 359 115.225, 358.775 115, 358.500 115 C 358.225 115, 358 115.225, 358 115.500 M 461 115.500 C 461 115.775, 461.225 116, 461.500 116 C 461.775 116, 462 115.775, 462 115.500 C 462 115.225, 461.775 115, 461.500 115 C 461.225 115, 461 115.225, 461 115.500 M 557 115.500 C 557 115.775, 557.225 116, 557.500 116 C 557.775 116, 558 115.775, 558 115.500 C 558 115.225, 557.775 115, 557.500 115 C 557.225 115, 557 115.225, 557 115.500 M 356 116.500 C 356 116.775, 356.225 117, 356.500 117 C 356.775 117, 357 116.775, 357 116.500 C 357 116.225, 356.775 116, 356.500 116 C 356.225 116, 356 116.225, 356 116.500 M 463 116.500 C 463 116.775, 463.225 117, 463.500 117 C 463.775 117, 464 116.775, 464 116.500 C 464 116.225, 463.775 116, 463.500 116 C 463.225 116, 463 116.225, 463 116.500 M 559 116.500 C 559 116.775, 559.225 117, 559.500 117 C 559.775 117, 560 116.775, 560 116.500 C 560 116.225, 559.775 116, 559.500 116 C 559.225 116, 559 116.225, 559 116.500 M 354 117.500 C 354 117.775, 354.225 118, 354.500 118 C 354.775 118, 355 117.775, 355 117.500 C 355 117.225, 354.775 117, 354.500 117 C 354.225 117, 354 117.225, 354 117.500 M 561 117.500 C 561 117.775, 561.225 118, 561.500 118 C 561.775 118, 562 117.775, 562 117.500 C 562 117.225, 561.775 117, 561.500 117 C 561.225 117, 561 117.225, 561 117.500 M 352 118.500 C 352 118.775, 352.225 119, 352.500 119 C 352.775 119, 353 118.775, 353 118.500 C 353 118.225, 352.775 118, 352.500 118 C 352.225 118, 352 118.225, 352 118.500 M 466 118.500 C 466 118.775, 466.225 119, 466.500 119 C 466.775 119, 467 118.775, 467 118.500 C 467 118.225, 466.775 118, 466.500 118 C 466.225 118, 466 118.225, 466 118.500 M 563 118.500 C 563 118.775, 563.225 119, 563.500 119 C 563.775 119, 564 118.775, 564 118.500 C 564 118.225, 563.775 118, 563.500 118 C 563.225 118, 563 118.225, 563 118.500 M 350 119.500 C 350 119.775, 350.225 120, 350.500 120 C 350.775 120, 351 119.775, 351 119.500 C 351 119.225, 350.775 119, 350.500 119 C 350.225 119, 350 119.225, 350 119.500 M 468 119.500 C 468 119.775, 468.225 120, 468.500 120 C 468.775 120, 469 119.775, 469 119.500 C 469 119.225, 468.775 119, 468.500 119 C 468.225 119, 468 119.225, 468 119.500 M 565 119.500 C 565 119.775, 565.225 120, 565.500 120 C 565.775 120, 566 119.775, 566 119.500 C 566 119.225, 565.775 119, 565.500 119 C 565.225 119, 565 119.225, 565 119.500 M 346.441 121.555 L 344.500 123.110 346.750 122.020 C 347.988 121.420, 349 120.720, 349 120.465 C 349 120.209, 348.861 120, 348.691 120 C 348.521 120, 347.509 120.700, 346.441 121.555 M 470 120.500 C 470 120.775, 470.225 121, 470.500 121 C 470.775 121, 471 120.775, 471 120.500 C 471 120.225, 470.775 120, 470.500 120 C 470.225 120, 470 120.225, 470 120.500 M 567 120.430 C 567 120.705, 567.900 121.411, 569 122 C 570.100 122.589, 571 122.845, 571 122.570 C 571 122.295, 570.100 121.589, 569 121 C 567.900 120.411, 567 120.155, 567 120.430 M 472 121.500 C 472 121.775, 472.225 122, 472.500 122 C 472.775 122, 473 121.775, 473 121.500 C 473 121.225, 472.775 121, 472.500 121 C 472.225 121, 472 121.225, 472 121.500 M 474 122.500 C 474 122.775, 474.225 123, 474.500 123 C 474.775 123, 475 122.775, 475 122.500 C 475 122.225, 474.775 122, 474.500 122 C 474.225 122, 474 122.225, 474 122.500 M 343 123.500 C 343 123.775, 343.225 124, 343.500 124 C 343.775 124, 344 123.775, 344 123.500 C 344 123.225, 343.775 123, 343.500 123 C 343.225 123, 343 123.225, 343 123.500 M 476 123.500 C 476 123.775, 476.225 124, 476.500 124 C 476.775 124, 477 123.775, 477 123.500 C 477 123.225, 476.775 123, 476.500 123 C 476.225 123, 476 123.225, 476 123.500 M 572 123.500 C 572 123.775, 572.225 124, 572.500 124 C 572.775 124, 573 123.775, 573 123.500 C 573 123.225, 572.775 123, 572.500 123 C 572.225 123, 572 123.225, 572 123.500 M 341 124.500 C 341 124.775, 341.225 125, 341.500 125 C 341.775 125, 342 124.775, 342 124.500 C 342 124.225, 341.775 124, 341.500 124 C 341.225 124, 341 124.225, 341 124.500 M 478 124.500 C 478 124.775, 478.225 125, 478.500 125 C 478.775 125, 479 124.775, 479 124.500 C 479 124.225, 478.775 124, 478.500 124 C 478.225 124, 478 124.225, 478 124.500 M 574 124.500 C 574 124.775, 574.225 125, 574.500 125 C 574.775 125, 575 124.775, 575 124.500 C 575 124.225, 574.775 124, 574.500 124 C 574.225 124, 574 124.225, 574 124.500 M 339 125.500 C 339 125.775, 339.225 126, 339.500 126 C 339.775 126, 340 125.775, 340 125.500 C 340 125.225, 339.775 125, 339.500 125 C 339.225 125, 339 125.225, 339 125.500 M 480.500 126 C 480.840 126.550, 481.343 127, 481.618 127 C 481.893 127, 481.840 126.550, 481.500 126 C 481.160 125.450, 480.657 125, 480.382 125 C 480.107 125, 480.160 125.450, 480.500 126 M 576 125.500 C 576 125.775, 576.225 126, 576.500 126 C 576.775 126, 577 125.775, 577 125.500 C 577 125.225, 576.775 125, 576.500 125 C 576.225 125, 576 125.225, 576 125.500 M 337 126.500 C 337 126.775, 337.225 127, 337.500 127 C 337.775 127, 338 126.775, 338 126.500 C 338 126.225, 337.775 126, 337.500 126 C 337.225 126, 337 126.225, 337 126.500 M 578 126.500 C 578 126.775, 578.225 127, 578.500 127 C 578.775 127, 579 126.775, 579 126.500 C 579 126.225, 578.775 126, 578.500 126 C 578.225 126, 578 126.225, 578 126.500 M 334.405 128.155 L 333.691 129.309 334.845 128.595 C 335.480 128.203, 336 127.684, 336 127.441 C 336 127.198, 335.802 127, 335.559 127 C 335.316 127, 334.797 127.520, 334.405 128.155 M 483 127.500 C 483 127.775, 483.225 128, 483.500 128 C 483.775 128, 484 127.775, 484 127.500 C 484 127.225, 483.775 127, 483.500 127 C 483.225 127, 483 127.225, 483 127.500 M 580.500 128 C 580.840 128.550, 581.343 129, 581.618 129 C 581.893 129, 581.840 128.550, 581.500 128 C 581.160 127.450, 580.657 127, 580.382 127 C 580.107 127, 580.160 127.450, 580.500 128 M 485 128.500 C 485 128.775, 485.225 129, 485.500 129 C 485.775 129, 486 128.775, 486 128.500 C 486 128.225, 485.775 128, 485.500 128 C 485.225 128, 485 128.225, 485 128.500 M 487 129.500 C 487 129.775, 487.225 130, 487.500 130 C 487.775 130, 488 129.775, 488 129.500 C 488 129.225, 487.775 129, 487.500 129 C 487.225 129, 487 129.225, 487 129.500 M 489 130.500 C 489 130.775, 489.225 131, 489.500 131 C 489.775 131, 490 130.775, 490 130.500 C 490 130.225, 489.775 130, 489.500 130 C 489.225 130, 489 130.225, 489 130.500 M 490 134.500 C 490 134.775, 490.225 135, 490.500 135 C 490.775 135, 491 134.775, 491 134.500 C 491 134.225, 490.775 134, 490.500 134 C 490.225 134, 490 134.225, 490 134.500 M 488 135.500 C 488 135.775, 488.225 136, 488.500 136 C 488.775 136, 489 135.775, 489 135.500 C 489 135.225, 488.775 135, 488.500 135 C 488.225 135, 488 135.225, 488 135.500 M 486 136.500 C 486 136.775, 486.225 137, 486.500 137 C 486.775 137, 487 136.775, 487 136.500 C 487 136.225, 486.775 136, 486.500 136 C 486.225 136, 486 136.225, 486 136.500 M 334 137.500 C 334 137.775, 334.225 138, 334.500 138 C 334.775 138, 335 137.775, 335 137.500 C 335 137.225, 334.775 137, 334.500 137 C 334.225 137, 334 137.225, 334 137.500 M 484 137.500 C 484 137.775, 484.225 138, 484.500 138 C 484.775 138, 485 137.775, 485 137.500 C 485 137.225, 484.775 137, 484.500 137 C 484.225 137, 484 137.225, 484 137.500 M 581 137.500 C 581 137.775, 581.225 138, 581.500 138 C 581.775 138, 582 137.775, 582 137.500 C 582 137.225, 581.775 137, 581.500 137 C 581.225 137, 581 137.225, 581 137.500 M 336 138.500 C 336 138.775, 336.225 139, 336.500 139 C 336.775 139, 337 138.775, 337 138.500 C 337 138.225, 336.775 138, 336.500 138 C 336.225 138, 336 138.225, 336 138.500 M 482 138.500 C 482 138.775, 482.225 139, 482.500 139 C 482.775 139, 483 138.775, 483 138.500 C 483 138.225, 482.775 138, 482.500 138 C 482.225 138, 482 138.225, 482 138.500 M 579 138.500 C 579 138.775, 579.225 139, 579.500 139 C 579.775 139, 580 138.775, 580 138.500 C 580 138.225, 579.775 138, 579.500 138 C 579.225 138, 579 138.225, 579 138.500 M 338 139.500 C 338 139.775, 338.225 140, 338.500 140 C 338.775 140, 339 139.775, 339 139.500 C 339 139.225, 338.775 139, 338.500 139 C 338.225 139, 338 139.225, 338 139.500 M 479.405 140.155 L 478.691 141.309 479.845 140.595 C 480.480 140.203, 481 139.684, 481 139.441 C 481 139.198, 480.802 139, 480.559 139 C 480.316 139, 479.797 139.520, 479.405 140.155 M 577 139.500 C 577 139.775, 577.225 140, 577.500 140 C 577.775 140, 578 139.775, 578 139.500 C 578 139.225, 577.775 139, 577.500 139 C 577.225 139, 577 139.225, 577 139.500 M 340 140.500 C 340 140.775, 340.225 141, 340.500 141 C 340.775 141, 341 140.775, 341 140.500 C 341 140.225, 340.775 140, 340.500 140 C 340.225 140, 340 140.225, 340 140.500 M 575 140.500 C 575 140.775, 575.225 141, 575.500 141 C 575.775 141, 576 140.775, 576 140.500 C 576 140.225, 575.775 140, 575.500 140 C 575.225 140, 575 140.225, 575 140.500 M 342 141.500 C 342 141.775, 342.225 142, 342.500 142 C 342.775 142, 343 141.775, 343 141.500 C 343 141.225, 342.775 141, 342.500 141 C 342.225 141, 342 141.225, 342 141.500 M 477 141.500 C 477 141.775, 477.225 142, 477.500 142 C 477.775 142, 478 141.775, 478 141.500 C 478 141.225, 477.775 141, 477.500 141 C 477.225 141, 477 141.225, 477 141.500 M 573 141.500 C 573 141.775, 573.225 142, 573.500 142 C 573.775 142, 574 141.775, 574 141.500 C 574 141.225, 573.775 141, 573.500 141 C 573.225 141, 573 141.225, 573 141.500 M 344 142.500 C 344 142.775, 344.225 143, 344.500 143 C 344.775 143, 345 142.775, 345 142.500 C 345 142.225, 344.775 142, 344.500 142 C 344.225 142, 344 142.225, 344 142.500 M 475 142.500 C 475 142.775, 475.225 143, 475.500 143 C 475.775 143, 476 142.775, 476 142.500 C 476 142.225, 475.775 142, 475.500 142 C 475.225 142, 475 142.225, 475 142.500 M 571 142.500 C 571 142.775, 571.225 143, 571.500 143 C 571.775 143, 572 142.775, 572 142.500 C 572 142.225, 571.775 142, 571.500 142 C 571.225 142, 571 142.225, 571 142.500 M 473 143.500 C 473 143.775, 473.225 144, 473.500 144 C 473.775 144, 474 143.775, 474 143.500 C 474 143.225, 473.775 143, 473.500 143 C 473.225 143, 473 143.225, 473 143.500 M 347 144.500 C 347 144.775, 347.225 145, 347.500 145 C 347.775 145, 348 144.775, 348 144.500 C 348 144.225, 347.775 144, 347.500 144 C 347.225 144, 347 144.225, 347 144.500 M 471 144.500 C 471 144.775, 471.225 145, 471.500 145 C 471.775 145, 472 144.775, 472 144.500 C 472 144.225, 471.775 144, 471.500 144 C 471.225 144, 471 144.225, 471 144.500 M 568 144.500 C 568 144.775, 568.225 145, 568.500 145 C 568.775 145, 569 144.775, 569 144.500 C 569 144.225, 568.775 144, 568.500 144 C 568.225 144, 568 144.225, 568 144.500 M 349 145.500 C 349 145.775, 349.225 146, 349.500 146 C 349.775 146, 350 145.775, 350 145.500 C 350 145.225, 349.775 145, 349.500 145 C 349.225 145, 349 145.225, 349 145.500 M 469 145.500 C 469 145.775, 469.225 146, 469.500 146 C 469.775 146, 470 145.775, 470 145.500 C 470 145.225, 469.775 145, 469.500 145 C 469.225 145, 469 145.225, 469 145.500 M 566 145.500 C 566 145.775, 566.225 146, 566.500 146 C 566.775 146, 567 145.775, 567 145.500 C 567 145.225, 566.775 145, 566.500 145 C 566.225 145, 566 145.225, 566 145.500 M 351 146.500 C 351 146.775, 351.225 147, 351.500 147 C 351.775 147, 352 146.775, 352 146.500 C 352 146.225, 351.775 146, 351.500 146 C 351.225 146, 351 146.225, 351 146.500 M 564 146.500 C 564 146.775, 564.225 147, 564.500 147 C 564.775 147, 565 146.775, 565 146.500 C 565 146.225, 564.775 146, 564.500 146 C 564.225 146, 564 146.225, 564 146.500 M 353 147.500 C 353 147.775, 353.225 148, 353.500 148 C 353.775 148, 354 147.775, 354 147.500 C 354 147.225, 353.775 147, 353.500 147 C 353.225 147, 353 147.225, 353 147.500 M 562 147.500 C 562 147.775, 562.225 148, 562.500 148 C 562.775 148, 563 147.775, 563 147.500 C 563 147.225, 562.775 147, 562.500 147 C 562.225 147, 562 147.225, 562 147.500 M 355 148.500 C 355 148.775, 355.225 149, 355.500 149 C 355.775 149, 356 148.775, 356 148.500 C 356 148.225, 355.775 148, 355.500 148 C 355.225 148, 355 148.225, 355 148.500 M 560 148.500 C 560 148.775, 560.225 149, 560.500 149 C 560.775 149, 561 148.775, 561 148.500 C 561 148.225, 560.775 148, 560.500 148 C 560.225 148, 560 148.225, 560 148.500 M 357 149.500 C 357 149.775, 357.225 150, 357.500 150 C 357.775 150, 358 149.775, 358 149.500 C 358 149.225, 357.775 149, 357.500 149 C 357.225 149, 357 149.225, 357 149.500 M 558 149.500 C 558 149.775, 558.225 150, 558.500 150 C 558.775 150, 559 149.775, 559 149.500 C 559 149.225, 558.775 149, 558.500 149 C 558.225 149, 558 149.225, 558 149.500 M 451 155.500 C 451 155.775, 451.225 156, 451.500 156 C 451.775 156, 452 155.775, 452 155.500 C 452 155.225, 451.775 155, 451.500 155 C 451.225 155, 451 155.225, 451 155.500 M 449 156.500 C 449 156.775, 449.225 157, 449.500 157 C 449.775 157, 450 156.775, 450 156.500 C 450 156.225, 449.775 156, 449.500 156 C 449.225 156, 449 156.225, 449 156.500" stroke="none" fill="#9d9d9d" fill-rule="evenodd"/></svg>